<mxfile host="app.diagrams.net" modified="2022-04-15T22:09:30.012Z" agent="5.0 (Windows NT 10.0; Win64; x64) AppleWebKit/537.36 (KHTML, like Gecko) Chrome/100.0.4896.88 Safari/537.36" etag="IkTf09JKDfh68FQRyh5X" version="17.4.4" type="github">
  <diagram id="k_-mbqi0pfrUO1UG-0ln" name="Page-1">
    <mxGraphModel dx="1922" dy="1496" grid="1" gridSize="10" guides="1" tooltips="1" connect="1" arrows="1" fold="1" page="1" pageScale="1" pageWidth="827" pageHeight="1169" math="0" shadow="0">
      <root>
        <mxCell id="0" />
        <mxCell id="1" parent="0" />
        <mxCell id="lqDdgvxMo6fMA4oCMSZA-43" style="edgeStyle=orthogonalEdgeStyle;rounded=0;orthogonalLoop=1;jettySize=auto;html=1;exitX=0.67;exitY=1;exitDx=0;exitDy=3;exitPerimeter=0;" edge="1" parent="1" source="lqDdgvxMo6fMA4oCMSZA-7">
          <mxGeometry relative="1" as="geometry">
            <mxPoint x="1229" y="153.0322580645161" as="targetPoint" />
          </mxGeometry>
        </mxCell>
        <mxCell id="lqDdgvxMo6fMA4oCMSZA-7" value="" style="shape=table;startSize=0;container=1;collapsible=0;childLayout=tableLayout;points=[[0,0,0,0,0],[0,0.27,0,0,0],[0,0.5,0,0,0],[0,0.73,0,0,0],[0,1,0,0,0],[0.25,0,0,0,0],[0.25,1,0,0,0],[0.5,0,0,0,0],[0.5,1,0,0,0],[0.75,0,0,0,0],[0.79,0.9,0,0,0],[1,0,0,0,0],[1,0.27,0,0,0],[1,0.5,0,0,0],[1,0.77,0,0,0],[1,1,0,0,0]];" vertex="1" parent="1">
          <mxGeometry x="827" y="120" width="600" height="30" as="geometry" />
        </mxCell>
        <mxCell id="lqDdgvxMo6fMA4oCMSZA-8" value="" style="shape=tableRow;horizontal=0;startSize=0;swimlaneHead=0;swimlaneBody=0;top=0;left=0;bottom=0;right=0;collapsible=0;dropTarget=0;fillColor=none;points=[[0,0.5],[1,0.5]];portConstraint=eastwest;" vertex="1" parent="lqDdgvxMo6fMA4oCMSZA-7">
          <mxGeometry width="600" height="30" as="geometry" />
        </mxCell>
        <mxCell id="lqDdgvxMo6fMA4oCMSZA-9" value="&lt;u&gt;Id (PK)&lt;/u&gt;" style="shape=partialRectangle;html=1;whiteSpace=wrap;connectable=0;overflow=hidden;fillColor=none;top=0;left=0;bottom=0;right=0;pointerEvents=1;" vertex="1" parent="lqDdgvxMo6fMA4oCMSZA-8">
          <mxGeometry width="109" height="30" as="geometry">
            <mxRectangle width="109" height="30" as="alternateBounds" />
          </mxGeometry>
        </mxCell>
        <mxCell id="lqDdgvxMo6fMA4oCMSZA-10" value="Email" style="shape=partialRectangle;html=1;whiteSpace=wrap;connectable=0;overflow=hidden;fillColor=none;top=0;left=0;bottom=0;right=0;pointerEvents=1;" vertex="1" parent="lqDdgvxMo6fMA4oCMSZA-8">
          <mxGeometry x="109" width="104" height="30" as="geometry">
            <mxRectangle width="104" height="30" as="alternateBounds" />
          </mxGeometry>
        </mxCell>
        <mxCell id="lqDdgvxMo6fMA4oCMSZA-11" value="UserName" style="shape=partialRectangle;html=1;whiteSpace=wrap;connectable=0;overflow=hidden;fillColor=none;top=0;left=0;bottom=0;right=0;pointerEvents=1;" vertex="1" parent="lqDdgvxMo6fMA4oCMSZA-8">
          <mxGeometry x="213" width="126" height="30" as="geometry">
            <mxRectangle width="126" height="30" as="alternateBounds" />
          </mxGeometry>
        </mxCell>
        <mxCell id="lqDdgvxMo6fMA4oCMSZA-12" value="PasswordHash" style="shape=partialRectangle;html=1;whiteSpace=wrap;connectable=0;overflow=hidden;fillColor=none;top=0;left=0;bottom=0;right=0;pointerEvents=1;" vertex="1" parent="lqDdgvxMo6fMA4oCMSZA-8">
          <mxGeometry x="339" width="87" height="30" as="geometry">
            <mxRectangle width="87" height="30" as="alternateBounds" />
          </mxGeometry>
        </mxCell>
        <mxCell id="lqDdgvxMo6fMA4oCMSZA-13" value="SchoolID (FK)" style="shape=partialRectangle;html=1;whiteSpace=wrap;connectable=0;overflow=hidden;fillColor=none;top=0;left=0;bottom=0;right=0;pointerEvents=1;points=[[0,0,0,0,0],[0,0.23,0,0,0],[0,0.5,0,0,0],[0,0.77,0,0,0],[0,1,0,0,0],[0.25,0,0,0,0],[0.25,1,0,0,0],[0.51,0,0,0,0],[0.51,1,0,0,0],[0.75,0,0,0,0],[0.75,1,0,0,0],[1,0,0,0,0],[1,0.23,0,0,0],[1,0.5,0,0,0],[1,0.77,0,0,0],[1,1,0,0,0]];" vertex="1" parent="lqDdgvxMo6fMA4oCMSZA-8">
          <mxGeometry x="426" width="87" height="30" as="geometry">
            <mxRectangle width="87" height="30" as="alternateBounds" />
          </mxGeometry>
        </mxCell>
        <mxCell id="lqDdgvxMo6fMA4oCMSZA-14" value="CampusId (FK)" style="shape=partialRectangle;html=1;whiteSpace=wrap;connectable=0;overflow=hidden;fillColor=none;top=0;left=0;bottom=0;right=0;pointerEvents=1;" vertex="1" parent="lqDdgvxMo6fMA4oCMSZA-8">
          <mxGeometry x="513" width="87" height="30" as="geometry">
            <mxRectangle width="87" height="30" as="alternateBounds" />
          </mxGeometry>
        </mxCell>
        <mxCell id="lqDdgvxMo6fMA4oCMSZA-15" value="&lt;b&gt;User&lt;/b&gt;" style="text;html=1;strokeColor=none;fillColor=none;align=center;verticalAlign=middle;whiteSpace=wrap;rounded=0;" vertex="1" parent="1">
          <mxGeometry x="827" y="90" width="43" height="30" as="geometry" />
        </mxCell>
        <mxCell id="lqDdgvxMo6fMA4oCMSZA-16" value="&lt;b&gt;Roles&lt;/b&gt;" style="text;html=1;strokeColor=none;fillColor=none;align=center;verticalAlign=middle;whiteSpace=wrap;rounded=0;" vertex="1" parent="1">
          <mxGeometry x="1047" width="60" height="30" as="geometry" />
        </mxCell>
        <mxCell id="lqDdgvxMo6fMA4oCMSZA-17" value="&lt;b&gt;UserRoles&lt;/b&gt;" style="text;html=1;strokeColor=none;fillColor=none;align=center;verticalAlign=middle;whiteSpace=wrap;rounded=0;" vertex="1" parent="1">
          <mxGeometry x="827" width="83" height="30" as="geometry" />
        </mxCell>
        <mxCell id="lqDdgvxMo6fMA4oCMSZA-18" value="" style="shape=table;startSize=0;container=1;collapsible=0;childLayout=tableLayout;" vertex="1" parent="1">
          <mxGeometry x="1047" y="30" width="120" height="30" as="geometry" />
        </mxCell>
        <mxCell id="lqDdgvxMo6fMA4oCMSZA-19" value="" style="shape=tableRow;horizontal=0;startSize=0;swimlaneHead=0;swimlaneBody=0;top=0;left=0;bottom=0;right=0;collapsible=0;dropTarget=0;fillColor=none;points=[[0.45,1,0,0,45],[1,0.5,0,0,0]];portConstraint=eastwest;" vertex="1" parent="lqDdgvxMo6fMA4oCMSZA-18">
          <mxGeometry width="120" height="30" as="geometry" />
        </mxCell>
        <mxCell id="lqDdgvxMo6fMA4oCMSZA-20" value="&lt;u&gt;ID (PK)&lt;/u&gt;" style="shape=partialRectangle;html=1;whiteSpace=wrap;connectable=0;overflow=hidden;fillColor=none;top=0;left=0;bottom=0;right=0;pointerEvents=1;" vertex="1" parent="lqDdgvxMo6fMA4oCMSZA-19">
          <mxGeometry width="60" height="30" as="geometry">
            <mxRectangle width="60" height="30" as="alternateBounds" />
          </mxGeometry>
        </mxCell>
        <mxCell id="lqDdgvxMo6fMA4oCMSZA-21" value="Name" style="shape=partialRectangle;html=1;whiteSpace=wrap;connectable=0;overflow=hidden;fillColor=none;top=0;left=0;bottom=0;right=0;pointerEvents=1;" vertex="1" parent="lqDdgvxMo6fMA4oCMSZA-19">
          <mxGeometry x="60" width="60" height="30" as="geometry">
            <mxRectangle width="60" height="30" as="alternateBounds" />
          </mxGeometry>
        </mxCell>
        <mxCell id="lqDdgvxMo6fMA4oCMSZA-27" style="edgeStyle=orthogonalEdgeStyle;rounded=0;orthogonalLoop=1;jettySize=auto;html=1;exitX=0.17;exitY=1;exitDx=0;exitDy=0;exitPerimeter=0;entryX=0.122;entryY=0;entryDx=0;entryDy=0;entryPerimeter=0;" edge="1" parent="1" source="lqDdgvxMo6fMA4oCMSZA-22" target="lqDdgvxMo6fMA4oCMSZA-8">
          <mxGeometry relative="1" as="geometry" />
        </mxCell>
        <mxCell id="lqDdgvxMo6fMA4oCMSZA-22" value="" style="shape=table;startSize=0;container=1;collapsible=0;childLayout=tableLayout;points=[[0,0,0,0,0],[0,0.27,0,0,0],[0,0.5,0,0,0],[0,0.73,0,0,0],[0,1,0,0,0],[0.1,1,0,0,0],[0.17,1,0,0,0],[0.25,0,0,0,0],[0.5,0,0,0,0],[0.5,1,0,0,0],[0.75,0,0,0,0],[0.75,1,0,0,0],[1,0,0,0,0],[1,0.27,0,0,0],[1,0.5,0,0,0],[1,0.77,0,0,0],[1,1,0,0,0]];" vertex="1" parent="1">
          <mxGeometry x="827" y="30" width="150" height="30" as="geometry" />
        </mxCell>
        <mxCell id="lqDdgvxMo6fMA4oCMSZA-23" value="" style="shape=tableRow;horizontal=0;startSize=0;swimlaneHead=0;swimlaneBody=0;top=0;left=0;bottom=0;right=0;collapsible=0;dropTarget=0;fillColor=none;points=[[0,0.5],[1,0.5]];portConstraint=eastwest;" vertex="1" parent="lqDdgvxMo6fMA4oCMSZA-22">
          <mxGeometry width="150" height="30" as="geometry" />
        </mxCell>
        <mxCell id="lqDdgvxMo6fMA4oCMSZA-24" value="&lt;u&gt;UserID (PK)&lt;/u&gt;" style="shape=partialRectangle;html=1;whiteSpace=wrap;connectable=0;overflow=hidden;fillColor=none;top=0;left=0;bottom=0;right=0;pointerEvents=1;" vertex="1" parent="lqDdgvxMo6fMA4oCMSZA-23">
          <mxGeometry width="75" height="30" as="geometry">
            <mxRectangle width="75" height="30" as="alternateBounds" />
          </mxGeometry>
        </mxCell>
        <mxCell id="lqDdgvxMo6fMA4oCMSZA-25" value="&lt;u&gt;RoleID (PK)&lt;/u&gt;" style="shape=partialRectangle;html=1;whiteSpace=wrap;connectable=0;overflow=hidden;fillColor=none;top=0;left=0;bottom=0;right=0;pointerEvents=1;" vertex="1" parent="lqDdgvxMo6fMA4oCMSZA-23">
          <mxGeometry x="75" width="75" height="30" as="geometry">
            <mxRectangle width="75" height="30" as="alternateBounds" />
          </mxGeometry>
        </mxCell>
        <mxCell id="lqDdgvxMo6fMA4oCMSZA-28" value="&lt;b&gt;Contact&lt;/b&gt;" style="text;html=1;strokeColor=none;fillColor=none;align=center;verticalAlign=middle;whiteSpace=wrap;rounded=0;" vertex="1" parent="1">
          <mxGeometry x="827" y="190" width="60" height="30" as="geometry" />
        </mxCell>
        <mxCell id="lqDdgvxMo6fMA4oCMSZA-29" value="" style="shape=table;startSize=0;container=1;collapsible=0;childLayout=tableLayout;points=[[0,0,0,0,0],[0,0.27,0,0,0],[0,0.5,0,0,0],[0,0.73,0,0,0],[0,1,0,0,0],[0.25,0,0,0,0],[0.25,1,0,0,0],[0.5,0,0,0,0],[0.5,1,0,0,0],[0.75,1,0,0,0],[0.87,0,0,0,0],[1,0,0,0,0],[1,0.23,0,0,0],[1,0.5,0,0,0],[1,0.77,0,0,0],[1,1,0,0,0]];" vertex="1" parent="1">
          <mxGeometry x="827" y="220" width="434" height="30" as="geometry" />
        </mxCell>
        <mxCell id="lqDdgvxMo6fMA4oCMSZA-30" value="" style="shape=tableRow;horizontal=0;startSize=0;swimlaneHead=0;swimlaneBody=0;top=0;left=0;bottom=0;right=0;collapsible=0;dropTarget=0;fillColor=none;points=[[0,0.5],[1,0.5]];portConstraint=eastwest;" vertex="1" parent="lqDdgvxMo6fMA4oCMSZA-29">
          <mxGeometry width="434" height="30" as="geometry" />
        </mxCell>
        <mxCell id="lqDdgvxMo6fMA4oCMSZA-31" value="&lt;u&gt;ID (PK)&lt;/u&gt;" style="shape=partialRectangle;html=1;whiteSpace=wrap;connectable=0;overflow=hidden;fillColor=none;top=0;left=0;bottom=0;right=0;pointerEvents=1;" vertex="1" parent="lqDdgvxMo6fMA4oCMSZA-30">
          <mxGeometry width="87" height="30" as="geometry">
            <mxRectangle width="87" height="30" as="alternateBounds" />
          </mxGeometry>
        </mxCell>
        <mxCell id="lqDdgvxMo6fMA4oCMSZA-32" value="AlternateEmail" style="shape=partialRectangle;html=1;whiteSpace=wrap;connectable=0;overflow=hidden;fillColor=none;top=0;left=0;bottom=0;right=0;pointerEvents=1;" vertex="1" parent="lqDdgvxMo6fMA4oCMSZA-30">
          <mxGeometry x="87" width="86" height="30" as="geometry">
            <mxRectangle width="86" height="30" as="alternateBounds" />
          </mxGeometry>
        </mxCell>
        <mxCell id="lqDdgvxMo6fMA4oCMSZA-33" value="Address" style="shape=partialRectangle;html=1;whiteSpace=wrap;connectable=0;overflow=hidden;fillColor=none;top=0;left=0;bottom=0;right=0;pointerEvents=1;" vertex="1" parent="lqDdgvxMo6fMA4oCMSZA-30">
          <mxGeometry x="173" width="87" height="30" as="geometry">
            <mxRectangle width="87" height="30" as="alternateBounds" />
          </mxGeometry>
        </mxCell>
        <mxCell id="lqDdgvxMo6fMA4oCMSZA-34" value="Phone" style="shape=partialRectangle;html=1;whiteSpace=wrap;connectable=0;overflow=hidden;fillColor=none;top=0;left=0;bottom=0;right=0;pointerEvents=1;" vertex="1" parent="lqDdgvxMo6fMA4oCMSZA-30">
          <mxGeometry x="260" width="87" height="30" as="geometry">
            <mxRectangle width="87" height="30" as="alternateBounds" />
          </mxGeometry>
        </mxCell>
        <mxCell id="lqDdgvxMo6fMA4oCMSZA-35" value="UserID (FK)" style="shape=partialRectangle;html=1;whiteSpace=wrap;connectable=0;overflow=hidden;fillColor=none;top=0;left=0;bottom=0;right=0;pointerEvents=1;" vertex="1" parent="lqDdgvxMo6fMA4oCMSZA-30">
          <mxGeometry x="347" width="87" height="30" as="geometry">
            <mxRectangle width="87" height="30" as="alternateBounds" />
          </mxGeometry>
        </mxCell>
        <mxCell id="lqDdgvxMo6fMA4oCMSZA-37" value="" style="shape=table;startSize=0;container=1;collapsible=0;childLayout=tableLayout;" vertex="1" parent="1">
          <mxGeometry x="1390" y="220" width="260" height="30" as="geometry" />
        </mxCell>
        <mxCell id="lqDdgvxMo6fMA4oCMSZA-38" value="" style="shape=tableRow;horizontal=0;startSize=0;swimlaneHead=0;swimlaneBody=0;top=0;left=0;bottom=0;right=0;collapsible=0;dropTarget=0;fillColor=none;points=[[0,0.5],[1,0.5]];portConstraint=eastwest;" vertex="1" parent="lqDdgvxMo6fMA4oCMSZA-37">
          <mxGeometry width="260" height="30" as="geometry" />
        </mxCell>
        <mxCell id="lqDdgvxMo6fMA4oCMSZA-39" value="&lt;u&gt;Id (PK)&lt;/u&gt;" style="shape=partialRectangle;html=1;whiteSpace=wrap;connectable=0;overflow=hidden;fillColor=none;top=0;left=0;bottom=0;right=0;pointerEvents=1;" vertex="1" parent="lqDdgvxMo6fMA4oCMSZA-38">
          <mxGeometry width="66" height="30" as="geometry">
            <mxRectangle width="66" height="30" as="alternateBounds" />
          </mxGeometry>
        </mxCell>
        <mxCell id="lqDdgvxMo6fMA4oCMSZA-40" value="Name" style="shape=partialRectangle;html=1;whiteSpace=wrap;connectable=0;overflow=hidden;fillColor=none;top=0;left=0;bottom=0;right=0;pointerEvents=1;" vertex="1" parent="lqDdgvxMo6fMA4oCMSZA-38">
          <mxGeometry x="66" width="64" height="30" as="geometry">
            <mxRectangle width="64" height="30" as="alternateBounds" />
          </mxGeometry>
        </mxCell>
        <mxCell id="lqDdgvxMo6fMA4oCMSZA-41" value="Domain" style="shape=partialRectangle;html=1;whiteSpace=wrap;connectable=0;overflow=hidden;fillColor=none;top=0;left=0;bottom=0;right=0;pointerEvents=1;" vertex="1" parent="lqDdgvxMo6fMA4oCMSZA-38">
          <mxGeometry x="130" width="66" height="30" as="geometry">
            <mxRectangle width="66" height="30" as="alternateBounds" />
          </mxGeometry>
        </mxCell>
        <mxCell id="lqDdgvxMo6fMA4oCMSZA-45" value="ShortName" style="shape=partialRectangle;html=1;whiteSpace=wrap;connectable=0;overflow=hidden;fillColor=none;top=0;left=0;bottom=0;right=0;pointerEvents=1;" vertex="1" parent="lqDdgvxMo6fMA4oCMSZA-38">
          <mxGeometry x="196" width="64" height="30" as="geometry">
            <mxRectangle width="64" height="30" as="alternateBounds" />
          </mxGeometry>
        </mxCell>
        <mxCell id="lqDdgvxMo6fMA4oCMSZA-42" value="&lt;b&gt;School&lt;/b&gt;" style="text;html=1;strokeColor=none;fillColor=none;align=center;verticalAlign=middle;whiteSpace=wrap;rounded=0;" vertex="1" parent="1">
          <mxGeometry x="1390" y="190" width="60" height="30" as="geometry" />
        </mxCell>
        <mxCell id="lqDdgvxMo6fMA4oCMSZA-44" value="" style="endArrow=classic;html=1;rounded=0;exitX=0.788;exitY=1.047;exitDx=0;exitDy=0;exitPerimeter=0;entryX=0;entryY=0.5;entryDx=0;entryDy=0;" edge="1" parent="1" source="lqDdgvxMo6fMA4oCMSZA-8" target="lqDdgvxMo6fMA4oCMSZA-38">
          <mxGeometry width="50" height="50" relative="1" as="geometry">
            <mxPoint x="1260" y="260" as="sourcePoint" />
            <mxPoint x="1310" y="210" as="targetPoint" />
            <Array as="points">
              <mxPoint x="1300" y="170" />
              <mxPoint x="1300" y="235" />
            </Array>
          </mxGeometry>
        </mxCell>
        <mxCell id="lqDdgvxMo6fMA4oCMSZA-46" value="&lt;b&gt;Campus&lt;/b&gt;" style="text;html=1;strokeColor=none;fillColor=none;align=center;verticalAlign=middle;whiteSpace=wrap;rounded=0;" vertex="1" parent="1">
          <mxGeometry x="1300" y="300" width="70" height="30" as="geometry" />
        </mxCell>
        <mxCell id="lqDdgvxMo6fMA4oCMSZA-47" value="" style="shape=table;startSize=0;container=1;collapsible=0;childLayout=tableLayout;" vertex="1" parent="1">
          <mxGeometry x="1300" y="330" width="340" height="30" as="geometry" />
        </mxCell>
        <mxCell id="lqDdgvxMo6fMA4oCMSZA-48" value="" style="shape=tableRow;horizontal=0;startSize=0;swimlaneHead=0;swimlaneBody=0;top=0;left=0;bottom=0;right=0;collapsible=0;dropTarget=0;fillColor=none;points=[[0,0.5],[1,0.5]];portConstraint=eastwest;" vertex="1" parent="lqDdgvxMo6fMA4oCMSZA-47">
          <mxGeometry width="340" height="30" as="geometry" />
        </mxCell>
        <mxCell id="lqDdgvxMo6fMA4oCMSZA-49" value="&lt;u&gt;Id (PK)&lt;/u&gt;" style="shape=partialRectangle;html=1;whiteSpace=wrap;connectable=0;overflow=hidden;fillColor=none;top=0;left=0;bottom=0;right=0;pointerEvents=1;" vertex="1" parent="lqDdgvxMo6fMA4oCMSZA-48">
          <mxGeometry width="85" height="30" as="geometry">
            <mxRectangle width="85" height="30" as="alternateBounds" />
          </mxGeometry>
        </mxCell>
        <mxCell id="lqDdgvxMo6fMA4oCMSZA-50" value="Name" style="shape=partialRectangle;html=1;whiteSpace=wrap;connectable=0;overflow=hidden;fillColor=none;top=0;left=0;bottom=0;right=0;pointerEvents=1;" vertex="1" parent="lqDdgvxMo6fMA4oCMSZA-48">
          <mxGeometry x="85" width="85" height="30" as="geometry">
            <mxRectangle width="85" height="30" as="alternateBounds" />
          </mxGeometry>
        </mxCell>
        <mxCell id="lqDdgvxMo6fMA4oCMSZA-51" value="City" style="shape=partialRectangle;html=1;whiteSpace=wrap;connectable=0;overflow=hidden;fillColor=none;top=0;left=0;bottom=0;right=0;pointerEvents=1;" vertex="1" parent="lqDdgvxMo6fMA4oCMSZA-48">
          <mxGeometry x="170" width="85" height="30" as="geometry">
            <mxRectangle width="85" height="30" as="alternateBounds" />
          </mxGeometry>
        </mxCell>
        <mxCell id="lqDdgvxMo6fMA4oCMSZA-52" value="SchoolId (FK)" style="shape=partialRectangle;html=1;whiteSpace=wrap;connectable=0;overflow=hidden;fillColor=none;top=0;left=0;bottom=0;right=0;pointerEvents=1;" vertex="1" parent="lqDdgvxMo6fMA4oCMSZA-48">
          <mxGeometry x="255" width="85" height="30" as="geometry">
            <mxRectangle width="85" height="30" as="alternateBounds" />
          </mxGeometry>
        </mxCell>
        <mxCell id="lqDdgvxMo6fMA4oCMSZA-53" value="" style="endArrow=classic;html=1;rounded=0;entryX=0.117;entryY=1.046;entryDx=0;entryDy=0;entryPerimeter=0;exitX=0.881;exitY=-0.02;exitDx=0;exitDy=0;exitPerimeter=0;" edge="1" parent="1" source="lqDdgvxMo6fMA4oCMSZA-48" target="lqDdgvxMo6fMA4oCMSZA-38">
          <mxGeometry width="50" height="50" relative="1" as="geometry">
            <mxPoint x="1440" y="360" as="sourcePoint" />
            <mxPoint x="1490" y="310" as="targetPoint" />
            <Array as="points">
              <mxPoint x="1600" y="280" />
              <mxPoint x="1420" y="280" />
            </Array>
          </mxGeometry>
        </mxCell>
        <mxCell id="lqDdgvxMo6fMA4oCMSZA-54" value="" style="endArrow=classic;html=1;rounded=0;entryX=0.21;entryY=-0.001;entryDx=0;entryDy=0;entryPerimeter=0;exitX=0.905;exitY=1;exitDx=0;exitDy=0;exitPerimeter=0;" edge="1" parent="1" source="lqDdgvxMo6fMA4oCMSZA-8" target="lqDdgvxMo6fMA4oCMSZA-48">
          <mxGeometry width="50" height="50" relative="1" as="geometry">
            <mxPoint x="1330" y="240" as="sourcePoint" />
            <mxPoint x="1380" y="190" as="targetPoint" />
          </mxGeometry>
        </mxCell>
        <mxCell id="lqDdgvxMo6fMA4oCMSZA-55" value="&lt;b&gt;Post&lt;/b&gt;" style="text;html=1;strokeColor=none;fillColor=none;align=center;verticalAlign=middle;whiteSpace=wrap;rounded=0;" vertex="1" parent="1">
          <mxGeometry x="827" y="490" width="47" height="30" as="geometry" />
        </mxCell>
        <mxCell id="lqDdgvxMo6fMA4oCMSZA-56" value="" style="shape=table;startSize=0;container=1;collapsible=0;childLayout=tableLayout;" vertex="1" parent="1">
          <mxGeometry x="827" y="520" width="533" height="30" as="geometry" />
        </mxCell>
        <mxCell id="lqDdgvxMo6fMA4oCMSZA-57" value="" style="shape=tableRow;horizontal=0;startSize=0;swimlaneHead=0;swimlaneBody=0;top=0;left=0;bottom=0;right=0;collapsible=0;dropTarget=0;fillColor=none;points=[[0,0.5],[1,0.5]];portConstraint=eastwest;" vertex="1" parent="lqDdgvxMo6fMA4oCMSZA-56">
          <mxGeometry width="533" height="30" as="geometry" />
        </mxCell>
        <mxCell id="lqDdgvxMo6fMA4oCMSZA-58" value="&lt;u&gt;PostID (PK)&lt;/u&gt;" style="shape=partialRectangle;html=1;whiteSpace=wrap;connectable=0;overflow=hidden;fillColor=none;top=0;left=0;bottom=0;right=0;pointerEvents=1;" vertex="1" parent="lqDdgvxMo6fMA4oCMSZA-57">
          <mxGeometry width="67" height="30" as="geometry">
            <mxRectangle width="67" height="30" as="alternateBounds" />
          </mxGeometry>
        </mxCell>
        <mxCell id="lqDdgvxMo6fMA4oCMSZA-59" value="Description" style="shape=partialRectangle;html=1;whiteSpace=wrap;connectable=0;overflow=hidden;fillColor=none;top=0;left=0;bottom=0;right=0;pointerEvents=1;" vertex="1" parent="lqDdgvxMo6fMA4oCMSZA-57">
          <mxGeometry x="67" width="69" height="30" as="geometry">
            <mxRectangle width="69" height="30" as="alternateBounds" />
          </mxGeometry>
        </mxCell>
        <mxCell id="lqDdgvxMo6fMA4oCMSZA-60" value="Quantity" style="shape=partialRectangle;html=1;whiteSpace=wrap;connectable=0;overflow=hidden;fillColor=none;top=0;left=0;bottom=0;right=0;pointerEvents=1;" vertex="1" parent="lqDdgvxMo6fMA4oCMSZA-57">
          <mxGeometry x="136" width="77" height="30" as="geometry">
            <mxRectangle width="77" height="30" as="alternateBounds" />
          </mxGeometry>
        </mxCell>
        <mxCell id="lqDdgvxMo6fMA4oCMSZA-61" value="Title" style="shape=partialRectangle;html=1;whiteSpace=wrap;connectable=0;overflow=hidden;fillColor=none;top=0;left=0;bottom=0;right=0;pointerEvents=1;" vertex="1" parent="lqDdgvxMo6fMA4oCMSZA-57">
          <mxGeometry x="213" width="68" height="30" as="geometry">
            <mxRectangle width="68" height="30" as="alternateBounds" />
          </mxGeometry>
        </mxCell>
        <mxCell id="lqDdgvxMo6fMA4oCMSZA-62" value="UserId (FK)" style="shape=partialRectangle;html=1;whiteSpace=wrap;connectable=0;overflow=hidden;fillColor=none;top=0;left=0;bottom=0;right=0;pointerEvents=1;" vertex="1" parent="lqDdgvxMo6fMA4oCMSZA-57">
          <mxGeometry x="281" width="72" height="30" as="geometry">
            <mxRectangle width="72" height="30" as="alternateBounds" />
          </mxGeometry>
        </mxCell>
        <mxCell id="lqDdgvxMo6fMA4oCMSZA-63" value="CourseId (FK)" style="shape=partialRectangle;html=1;whiteSpace=wrap;connectable=0;overflow=hidden;fillColor=none;top=0;left=0;bottom=0;right=0;pointerEvents=1;" vertex="1" parent="lqDdgvxMo6fMA4oCMSZA-57">
          <mxGeometry x="353" width="90" height="30" as="geometry">
            <mxRectangle width="90" height="30" as="alternateBounds" />
          </mxGeometry>
        </mxCell>
        <mxCell id="lqDdgvxMo6fMA4oCMSZA-64" value="CampusId (FK)" style="shape=partialRectangle;html=1;whiteSpace=wrap;connectable=0;overflow=hidden;fillColor=none;top=0;left=0;bottom=0;right=0;pointerEvents=1;" vertex="1" parent="lqDdgvxMo6fMA4oCMSZA-57">
          <mxGeometry x="443" width="90" height="30" as="geometry">
            <mxRectangle width="90" height="30" as="alternateBounds" />
          </mxGeometry>
        </mxCell>
        <mxCell id="lqDdgvxMo6fMA4oCMSZA-69" value="" style="shape=table;startSize=0;container=1;collapsible=0;childLayout=tableLayout;" vertex="1" parent="1">
          <mxGeometry x="1440" y="550" width="120" height="30" as="geometry" />
        </mxCell>
        <mxCell id="lqDdgvxMo6fMA4oCMSZA-70" value="" style="shape=tableRow;horizontal=0;startSize=0;swimlaneHead=0;swimlaneBody=0;top=0;left=0;bottom=0;right=0;collapsible=0;dropTarget=0;fillColor=none;points=[[0,0.5],[1,0.5]];portConstraint=eastwest;" vertex="1" parent="lqDdgvxMo6fMA4oCMSZA-69">
          <mxGeometry width="120" height="30" as="geometry" />
        </mxCell>
        <mxCell id="lqDdgvxMo6fMA4oCMSZA-71" value="&lt;u&gt;ID (PK)&lt;/u&gt;" style="shape=partialRectangle;html=1;whiteSpace=wrap;connectable=0;overflow=hidden;fillColor=none;top=0;left=0;bottom=0;right=0;pointerEvents=1;" vertex="1" parent="lqDdgvxMo6fMA4oCMSZA-70">
          <mxGeometry width="60" height="30" as="geometry">
            <mxRectangle width="60" height="30" as="alternateBounds" />
          </mxGeometry>
        </mxCell>
        <mxCell id="lqDdgvxMo6fMA4oCMSZA-72" value="Name" style="shape=partialRectangle;html=1;whiteSpace=wrap;connectable=0;overflow=hidden;fillColor=none;top=0;left=0;bottom=0;right=0;pointerEvents=1;" vertex="1" parent="lqDdgvxMo6fMA4oCMSZA-70">
          <mxGeometry x="60" width="60" height="30" as="geometry">
            <mxRectangle width="60" height="30" as="alternateBounds" />
          </mxGeometry>
        </mxCell>
        <mxCell id="lqDdgvxMo6fMA4oCMSZA-73" value="&lt;b&gt;Category&lt;/b&gt;" style="text;html=1;strokeColor=none;fillColor=none;align=center;verticalAlign=middle;whiteSpace=wrap;rounded=0;" vertex="1" parent="1">
          <mxGeometry x="1440" y="520" width="60" height="30" as="geometry" />
        </mxCell>
        <mxCell id="lqDdgvxMo6fMA4oCMSZA-74" value="&lt;b&gt;UserFavourites&lt;/b&gt;" style="text;html=1;strokeColor=none;fillColor=none;align=center;verticalAlign=middle;whiteSpace=wrap;rounded=0;" vertex="1" parent="1">
          <mxGeometry x="827" y="390" width="103" height="30" as="geometry" />
        </mxCell>
        <mxCell id="lqDdgvxMo6fMA4oCMSZA-75" value="" style="shape=table;startSize=0;container=1;collapsible=0;childLayout=tableLayout;" vertex="1" parent="1">
          <mxGeometry x="827" y="420" width="180" height="30" as="geometry" />
        </mxCell>
        <mxCell id="lqDdgvxMo6fMA4oCMSZA-76" value="" style="shape=tableRow;horizontal=0;startSize=0;swimlaneHead=0;swimlaneBody=0;top=0;left=0;bottom=0;right=0;collapsible=0;dropTarget=0;fillColor=none;points=[[0,0.5],[1,0.5]];portConstraint=eastwest;" vertex="1" parent="lqDdgvxMo6fMA4oCMSZA-75">
          <mxGeometry width="180" height="30" as="geometry" />
        </mxCell>
        <mxCell id="lqDdgvxMo6fMA4oCMSZA-77" value="&lt;u&gt;PostID (PK)&lt;/u&gt;" style="shape=partialRectangle;html=1;whiteSpace=wrap;connectable=0;overflow=hidden;fillColor=none;top=0;left=0;bottom=0;right=0;pointerEvents=1;" vertex="1" parent="lqDdgvxMo6fMA4oCMSZA-76">
          <mxGeometry width="90" height="30" as="geometry">
            <mxRectangle width="90" height="30" as="alternateBounds" />
          </mxGeometry>
        </mxCell>
        <mxCell id="lqDdgvxMo6fMA4oCMSZA-78" value="&lt;u&gt;UserID (PK)&lt;/u&gt;" style="shape=partialRectangle;html=1;whiteSpace=wrap;connectable=0;overflow=hidden;fillColor=none;top=0;left=0;bottom=0;right=0;pointerEvents=1;" vertex="1" parent="lqDdgvxMo6fMA4oCMSZA-76">
          <mxGeometry x="90" width="90" height="30" as="geometry">
            <mxRectangle width="90" height="30" as="alternateBounds" />
          </mxGeometry>
        </mxCell>
        <mxCell id="lqDdgvxMo6fMA4oCMSZA-79" value="&lt;b&gt;Course&lt;/b&gt;" style="text;html=1;strokeColor=none;fillColor=none;align=center;verticalAlign=middle;whiteSpace=wrap;rounded=0;" vertex="1" parent="1">
          <mxGeometry x="827" y="290" width="70" height="30" as="geometry" />
        </mxCell>
        <mxCell id="lqDdgvxMo6fMA4oCMSZA-80" value="" style="shape=table;startSize=0;container=1;collapsible=0;childLayout=tableLayout;" vertex="1" parent="1">
          <mxGeometry x="827" y="320" width="250" height="30" as="geometry" />
        </mxCell>
        <mxCell id="lqDdgvxMo6fMA4oCMSZA-81" value="" style="shape=tableRow;horizontal=0;startSize=0;swimlaneHead=0;swimlaneBody=0;top=0;left=0;bottom=0;right=0;collapsible=0;dropTarget=0;fillColor=none;points=[[0,0.5],[1,0.5]];portConstraint=eastwest;" vertex="1" parent="lqDdgvxMo6fMA4oCMSZA-80">
          <mxGeometry width="250" height="30" as="geometry" />
        </mxCell>
        <mxCell id="lqDdgvxMo6fMA4oCMSZA-82" value="&lt;u&gt;ID (PK)&lt;/u&gt;" style="shape=partialRectangle;html=1;whiteSpace=wrap;connectable=0;overflow=hidden;fillColor=none;top=0;left=0;bottom=0;right=0;pointerEvents=1;" vertex="1" parent="lqDdgvxMo6fMA4oCMSZA-81">
          <mxGeometry width="83" height="30" as="geometry">
            <mxRectangle width="83" height="30" as="alternateBounds" />
          </mxGeometry>
        </mxCell>
        <mxCell id="lqDdgvxMo6fMA4oCMSZA-83" value="SchoolId (FK)" style="shape=partialRectangle;html=1;whiteSpace=wrap;connectable=0;overflow=hidden;fillColor=none;top=0;left=0;bottom=0;right=0;pointerEvents=1;" vertex="1" parent="lqDdgvxMo6fMA4oCMSZA-81">
          <mxGeometry x="83" width="84" height="30" as="geometry">
            <mxRectangle width="84" height="30" as="alternateBounds" />
          </mxGeometry>
        </mxCell>
        <mxCell id="lqDdgvxMo6fMA4oCMSZA-84" value="Name" style="shape=partialRectangle;html=1;whiteSpace=wrap;connectable=0;overflow=hidden;fillColor=none;top=0;left=0;bottom=0;right=0;pointerEvents=1;" vertex="1" parent="lqDdgvxMo6fMA4oCMSZA-81">
          <mxGeometry x="167" width="83" height="30" as="geometry">
            <mxRectangle width="83" height="30" as="alternateBounds" />
          </mxGeometry>
        </mxCell>
        <mxCell id="lqDdgvxMo6fMA4oCMSZA-85" value="&lt;b&gt;Image&lt;/b&gt;" style="text;html=1;strokeColor=none;fillColor=none;align=center;verticalAlign=middle;whiteSpace=wrap;rounded=0;" vertex="1" parent="1">
          <mxGeometry x="827" y="610" width="47" height="30" as="geometry" />
        </mxCell>
        <mxCell id="lqDdgvxMo6fMA4oCMSZA-86" value="" style="shape=table;startSize=0;container=1;collapsible=0;childLayout=tableLayout;" vertex="1" parent="1">
          <mxGeometry x="827" y="640" width="240" height="30" as="geometry" />
        </mxCell>
        <mxCell id="lqDdgvxMo6fMA4oCMSZA-87" value="" style="shape=tableRow;horizontal=0;startSize=0;swimlaneHead=0;swimlaneBody=0;top=0;left=0;bottom=0;right=0;collapsible=0;dropTarget=0;fillColor=none;points=[[0,0.5],[1,0.5]];portConstraint=eastwest;" vertex="1" parent="lqDdgvxMo6fMA4oCMSZA-86">
          <mxGeometry width="240" height="30" as="geometry" />
        </mxCell>
        <mxCell id="lqDdgvxMo6fMA4oCMSZA-88" value="&lt;u&gt;ID (PK)&lt;/u&gt;" style="shape=partialRectangle;html=1;whiteSpace=wrap;connectable=0;overflow=hidden;fillColor=none;top=0;left=0;bottom=0;right=0;pointerEvents=1;" vertex="1" parent="lqDdgvxMo6fMA4oCMSZA-87">
          <mxGeometry width="80" height="30" as="geometry">
            <mxRectangle width="80" height="30" as="alternateBounds" />
          </mxGeometry>
        </mxCell>
        <mxCell id="lqDdgvxMo6fMA4oCMSZA-89" value="&lt;u&gt;PostID (PK)&lt;/u&gt;" style="shape=partialRectangle;html=1;whiteSpace=wrap;connectable=0;overflow=hidden;fillColor=none;top=0;left=0;bottom=0;right=0;pointerEvents=1;" vertex="1" parent="lqDdgvxMo6fMA4oCMSZA-87">
          <mxGeometry x="80" width="75" height="30" as="geometry">
            <mxRectangle width="75" height="30" as="alternateBounds" />
          </mxGeometry>
        </mxCell>
        <mxCell id="lqDdgvxMo6fMA4oCMSZA-90" value="Name" style="shape=partialRectangle;html=1;whiteSpace=wrap;connectable=0;overflow=hidden;fillColor=none;top=0;left=0;bottom=0;right=0;pointerEvents=1;" vertex="1" parent="lqDdgvxMo6fMA4oCMSZA-87">
          <mxGeometry x="155" width="85" height="30" as="geometry">
            <mxRectangle width="85" height="30" as="alternateBounds" />
          </mxGeometry>
        </mxCell>
        <mxCell id="lqDdgvxMo6fMA4oCMSZA-91" value="" style="shape=table;startSize=0;container=1;collapsible=0;childLayout=tableLayout;" vertex="1" parent="1">
          <mxGeometry x="946" y="550" width="414" height="30" as="geometry" />
        </mxCell>
        <mxCell id="lqDdgvxMo6fMA4oCMSZA-92" value="" style="shape=tableRow;horizontal=0;startSize=0;swimlaneHead=0;swimlaneBody=0;top=0;left=0;bottom=0;right=0;collapsible=0;dropTarget=0;fillColor=none;points=[[0,0.5],[1,0.5]];portConstraint=eastwest;" vertex="1" parent="lqDdgvxMo6fMA4oCMSZA-91">
          <mxGeometry width="414" height="30" as="geometry" />
        </mxCell>
        <mxCell id="lqDdgvxMo6fMA4oCMSZA-93" value="Type" style="shape=partialRectangle;html=1;whiteSpace=wrap;connectable=0;overflow=hidden;fillColor=none;top=0;left=0;bottom=0;right=0;pointerEvents=1;" vertex="1" parent="lqDdgvxMo6fMA4oCMSZA-92">
          <mxGeometry width="67" height="30" as="geometry">
            <mxRectangle width="67" height="30" as="alternateBounds" />
          </mxGeometry>
        </mxCell>
        <mxCell id="lqDdgvxMo6fMA4oCMSZA-94" value="Price" style="shape=partialRectangle;html=1;whiteSpace=wrap;connectable=0;overflow=hidden;fillColor=none;top=0;left=0;bottom=0;right=0;pointerEvents=1;" vertex="1" parent="lqDdgvxMo6fMA4oCMSZA-92">
          <mxGeometry x="67" width="66" height="30" as="geometry">
            <mxRectangle width="66" height="30" as="alternateBounds" />
          </mxGeometry>
        </mxCell>
        <mxCell id="lqDdgvxMo6fMA4oCMSZA-95" value="MinPrice" style="shape=partialRectangle;html=1;whiteSpace=wrap;connectable=0;overflow=hidden;fillColor=none;top=0;left=0;bottom=0;right=0;pointerEvents=1;" vertex="1" parent="lqDdgvxMo6fMA4oCMSZA-92">
          <mxGeometry x="133" width="67" height="30" as="geometry">
            <mxRectangle width="67" height="30" as="alternateBounds" />
          </mxGeometry>
        </mxCell>
        <mxCell id="lqDdgvxMo6fMA4oCMSZA-96" value="MaxPrice" style="shape=partialRectangle;html=1;whiteSpace=wrap;connectable=0;overflow=hidden;fillColor=none;top=0;left=0;bottom=0;right=0;pointerEvents=1;" vertex="1" parent="lqDdgvxMo6fMA4oCMSZA-92">
          <mxGeometry x="200" width="66" height="30" as="geometry">
            <mxRectangle width="66" height="30" as="alternateBounds" />
          </mxGeometry>
        </mxCell>
        <mxCell id="lqDdgvxMo6fMA4oCMSZA-97" value="Condition" style="shape=partialRectangle;html=1;whiteSpace=wrap;connectable=0;overflow=hidden;fillColor=none;top=0;left=0;bottom=0;right=0;pointerEvents=1;" vertex="1" parent="lqDdgvxMo6fMA4oCMSZA-92">
          <mxGeometry x="266" width="74" height="30" as="geometry">
            <mxRectangle width="74" height="30" as="alternateBounds" />
          </mxGeometry>
        </mxCell>
        <mxCell id="lqDdgvxMo6fMA4oCMSZA-105" value="CategoryId (FK)" style="shape=partialRectangle;html=1;whiteSpace=wrap;connectable=0;overflow=hidden;fillColor=none;top=0;left=0;bottom=0;right=0;pointerEvents=1;" vertex="1" parent="lqDdgvxMo6fMA4oCMSZA-92">
          <mxGeometry x="340" width="74" height="30" as="geometry">
            <mxRectangle width="74" height="30" as="alternateBounds" />
          </mxGeometry>
        </mxCell>
        <mxCell id="lqDdgvxMo6fMA4oCMSZA-104" value="" style="endArrow=classic;html=1;rounded=0;entryX=0.058;entryY=1.035;entryDx=0;entryDy=0;entryPerimeter=0;exitX=0.925;exitY=-0.011;exitDx=0;exitDy=0;exitPerimeter=0;" edge="1" parent="1" source="lqDdgvxMo6fMA4oCMSZA-57" target="lqDdgvxMo6fMA4oCMSZA-48">
          <mxGeometry width="50" height="50" relative="1" as="geometry">
            <mxPoint x="1310" y="500" as="sourcePoint" />
            <mxPoint x="1360" y="450" as="targetPoint" />
          </mxGeometry>
        </mxCell>
        <mxCell id="lqDdgvxMo6fMA4oCMSZA-107" value="" style="endArrow=classic;html=1;rounded=0;exitX=1;exitY=0.5;exitDx=0;exitDy=0;entryX=0;entryY=0.5;entryDx=0;entryDy=0;" edge="1" parent="1" source="lqDdgvxMo6fMA4oCMSZA-92" target="lqDdgvxMo6fMA4oCMSZA-70">
          <mxGeometry width="50" height="50" relative="1" as="geometry">
            <mxPoint x="1400" y="630" as="sourcePoint" />
            <mxPoint x="1450" y="580" as="targetPoint" />
          </mxGeometry>
        </mxCell>
        <mxCell id="lqDdgvxMo6fMA4oCMSZA-108" value="" style="endArrow=classic;html=1;rounded=0;entryX=0.062;entryY=1;entryDx=0;entryDy=0;entryPerimeter=0;exitX=0.489;exitY=0.02;exitDx=0;exitDy=0;exitPerimeter=0;" edge="1" parent="1" source="lqDdgvxMo6fMA4oCMSZA-87" target="lqDdgvxMo6fMA4oCMSZA-57">
          <mxGeometry width="50" height="50" relative="1" as="geometry">
            <mxPoint x="1080" y="640" as="sourcePoint" />
            <mxPoint x="1130" y="590" as="targetPoint" />
            <Array as="points">
              <mxPoint x="944" y="600" />
              <mxPoint x="860" y="600" />
            </Array>
          </mxGeometry>
        </mxCell>
        <mxCell id="lqDdgvxMo6fMA4oCMSZA-109" value="" style="endArrow=classic;html=1;rounded=0;exitX=0.593;exitY=-0.028;exitDx=0;exitDy=0;exitPerimeter=0;entryX=0.105;entryY=1;entryDx=0;entryDy=0;entryPerimeter=0;" edge="1" parent="1" source="lqDdgvxMo6fMA4oCMSZA-57" target="lqDdgvxMo6fMA4oCMSZA-8">
          <mxGeometry width="50" height="50" relative="1" as="geometry">
            <mxPoint x="1360" y="360" as="sourcePoint" />
            <mxPoint x="1160" y="370" as="targetPoint" />
            <Array as="points">
              <mxPoint x="1143" y="490" />
              <mxPoint x="1290" y="490" />
              <mxPoint x="1290" y="170" />
              <mxPoint x="890" y="170" />
            </Array>
          </mxGeometry>
        </mxCell>
        <mxCell id="lqDdgvxMo6fMA4oCMSZA-110" value="" style="endArrow=classic;html=1;rounded=0;exitX=1;exitY=0.5;exitDx=0;exitDy=0;exitPerimeter=0;entryX=-0.011;entryY=0.511;entryDx=0;entryDy=0;entryPerimeter=0;" edge="1" parent="1" source="lqDdgvxMo6fMA4oCMSZA-22" target="lqDdgvxMo6fMA4oCMSZA-19">
          <mxGeometry width="50" height="50" relative="1" as="geometry">
            <mxPoint x="1120" y="210" as="sourcePoint" />
            <mxPoint x="1170" y="160" as="targetPoint" />
          </mxGeometry>
        </mxCell>
        <mxCell id="lqDdgvxMo6fMA4oCMSZA-111" value="" style="endArrow=classic;html=1;rounded=0;entryX=0.174;entryY=1.07;entryDx=0;entryDy=0;entryPerimeter=0;exitX=0.748;exitY=0.016;exitDx=0;exitDy=0;exitPerimeter=0;" edge="1" parent="1" source="lqDdgvxMo6fMA4oCMSZA-57" target="lqDdgvxMo6fMA4oCMSZA-81">
          <mxGeometry width="50" height="50" relative="1" as="geometry">
            <mxPoint x="1110" y="400" as="sourcePoint" />
            <mxPoint x="1160" y="350" as="targetPoint" />
            <Array as="points">
              <mxPoint x="1226" y="380" />
              <mxPoint x="870" y="380" />
            </Array>
          </mxGeometry>
        </mxCell>
        <mxCell id="lqDdgvxMo6fMA4oCMSZA-112" value="" style="endArrow=classic;html=1;rounded=0;exitX=0.5;exitY=-0.053;exitDx=0;exitDy=0;exitPerimeter=0;entryX=0.054;entryY=1.097;entryDx=0;entryDy=0;entryPerimeter=0;" edge="1" parent="1" source="lqDdgvxMo6fMA4oCMSZA-81" target="lqDdgvxMo6fMA4oCMSZA-38">
          <mxGeometry width="50" height="50" relative="1" as="geometry">
            <mxPoint x="990" y="310" as="sourcePoint" />
            <mxPoint x="1040" y="260" as="targetPoint" />
            <Array as="points">
              <mxPoint x="952" y="280" />
              <mxPoint x="1404" y="280" />
            </Array>
          </mxGeometry>
        </mxCell>
        <mxCell id="lqDdgvxMo6fMA4oCMSZA-113" value="" style="endArrow=classic;html=1;rounded=0;exitX=0.287;exitY=1.096;exitDx=0;exitDy=0;exitPerimeter=0;entryX=0.097;entryY=-0.031;entryDx=0;entryDy=0;entryPerimeter=0;" edge="1" parent="1" source="lqDdgvxMo6fMA4oCMSZA-76" target="lqDdgvxMo6fMA4oCMSZA-57">
          <mxGeometry width="50" height="50" relative="1" as="geometry">
            <mxPoint x="1070" y="440" as="sourcePoint" />
            <mxPoint x="1120" y="390" as="targetPoint" />
          </mxGeometry>
        </mxCell>
        <mxCell id="lqDdgvxMo6fMA4oCMSZA-114" value="" style="endArrow=classic;html=1;rounded=0;exitX=1;exitY=0.5;exitDx=0;exitDy=0;entryX=0.128;entryY=1.065;entryDx=0;entryDy=0;entryPerimeter=0;" edge="1" parent="1" source="lqDdgvxMo6fMA4oCMSZA-76" target="lqDdgvxMo6fMA4oCMSZA-8">
          <mxGeometry width="50" height="50" relative="1" as="geometry">
            <mxPoint x="1470" y="380" as="sourcePoint" />
            <mxPoint x="1520" y="330" as="targetPoint" />
            <Array as="points">
              <mxPoint x="1280" y="435" />
              <mxPoint x="1280" y="180" />
              <mxPoint x="904" y="180" />
            </Array>
          </mxGeometry>
        </mxCell>
        <mxCell id="lqDdgvxMo6fMA4oCMSZA-115" value="" style="endArrow=classic;html=1;rounded=0;entryX=0.156;entryY=1.112;entryDx=0;entryDy=0;entryPerimeter=0;exitX=0.897;exitY=-0.005;exitDx=0;exitDy=0;exitPerimeter=0;" edge="1" parent="1" source="lqDdgvxMo6fMA4oCMSZA-30" target="lqDdgvxMo6fMA4oCMSZA-8">
          <mxGeometry width="50" height="50" relative="1" as="geometry">
            <mxPoint x="1370" y="320" as="sourcePoint" />
            <mxPoint x="1420" y="270" as="targetPoint" />
            <Array as="points">
              <mxPoint x="1216" y="190" />
              <mxPoint x="920" y="190" />
            </Array>
          </mxGeometry>
        </mxCell>
      </root>
    </mxGraphModel>
  </diagram>
</mxfile>
